<?xml version="1.0" standalone="no"?>
<!DOCTYPE svg PUBLIC "-//W3C//DTD SVG 20010904//EN"
 "http://www.w3.org/TR/2001/REC-SVG-20010904/DTD/svg10.dtd">
<svg version="1.0" xmlns="http://www.w3.org/2000/svg"
 width="3508.000000pt" height="1486.000000pt" viewBox="0 0 3508.000000 1486.000000"
 preserveAspectRatio="xMidYMid meet">

<g transform="translate(0.000000,1486.000000) scale(0.100000,-0.100000)"
fill="#104f9e" stroke="none">
<path d="M5240 11253 c-19 -10 -45 -34 -58 -53 -24 -34 -24 -39 -18 -185 3
-82 9 -191 12 -240 l6 -91 -58 -18 c-33 -10 -89 -34 -126 -53 l-68 -35 -62 55
c-35 31 -110 99 -168 151 -58 52 -120 100 -138 107 -73 24 -162 -26 -183 -103
-20 -76 1 -106 185 -272 l164 -148 -38 -80 c-22 -44 -44 -104 -51 -134 -8 -34
-17 -54 -26 -54 -86 0 -416 -23 -441 -31 -83 -27 -116 -148 -60 -221 44 -57
70 -62 299 -49 247 14 229 14 229 -5 0 -24 50 -144 82 -195 15 -25 28 -50 28
-55 0 -5 -63 -79 -140 -164 -152 -168 -169 -199 -151 -268 16 -59 60 -94 124
-100 35 -3 63 1 81 10 14 7 80 73 145 145 l119 131 -1 -102 c0 -69 5 -120 17
-161 62 -209 217 -359 426 -411 86 -22 232 -15 313 14 l59 21 72 -73 c146
-148 348 -207 545 -161 108 26 188 71 273 156 l76 76 69 -23 c74 -26 176 -31
252 -13 129 29 249 127 302 246 17 37 34 74 38 82 4 8 31 20 60 28 168 43 302
196 331 376 42 265 -168 513 -441 521 -68 2 -69 3 -97 42 -68 93 -202 180
-323 209 -71 16 -184 19 -241 6 -31 -7 -40 -5 -55 11 -42 46 -67 51 -238 45
-88 -3 -197 -2 -243 1 l-83 7 -23 56 c-12 31 -37 80 -55 109 l-32 52 64 66
c157 162 256 282 266 319 14 53 -1 104 -44 141 -41 37 -81 47 -134 32 -34 -9
-62 -35 -184 -169 -79 -86 -150 -167 -159 -180 l-15 -21 -63 29 c-35 17 -94
38 -132 48 -46 12 -67 22 -64 30 11 28 -15 428 -30 470 -28 78 -120 114 -194
76z m283 -880 c84 -40 165 -115 206 -192 17 -32 31 -64 31 -70 0 -7 -28 -38
-62 -69 -72 -67 -131 -154 -155 -228 l-17 -54 -46 0 c-57 0 -184 -32 -238 -59
-21 -11 -60 -36 -86 -55 -25 -20 -50 -36 -55 -36 -23 0 -124 118 -153 179 -28
57 -33 79 -36 163 -6 146 30 240 131 336 97 91 182 123 317 119 83 -2 104 -7
163 -34z m663 -490 c36 -12 66 -34 114 -83 73 -75 95 -90 139 -90 45 0 79 16
133 65 62 55 129 79 211 73 113 -7 188 -61 247 -177 54 -108 106 -130 225 -95
69 19 122 7 170 -41 65 -66 67 -158 4 -230 -39 -44 -85 -59 -162 -51 -114 12
-177 -46 -177 -161 0 -116 -54 -183 -155 -191 -65 -5 -117 20 -155 75 -34 49
-76 73 -130 73 -49 0 -102 -26 -120 -59 -6 -12 -20 -51 -31 -87 -75 -243 -408
-278 -520 -54 -15 30 -34 72 -43 93 -21 50 -67 77 -133 77 -44 0 -57 -5 -95
-36 -68 -58 -132 -84 -208 -84 -261 0 -383 320 -189 494 81 73 178 93 284 60
61 -18 104 -12 146 23 41 35 59 79 59 148 0 86 40 164 115 221 72 55 177 69
271 37z"/>
<path d="M7352 11084 c-251 -27 -519 -83 -762 -160 -87 -28 -122 -44 -146 -68
-94 -94 -49 -247 82 -276 29 -7 63 0 178 35 373 113 654 155 1032 155 450 0
831 -70 1229 -227 1123 -442 1944 -1446 2140 -2617 38 -230 48 -384 42 -655
-7 -331 -43 -562 -134 -876 -35 -123 -126 -362 -170 -448 l-24 -49 -72 6 c-40
3 -120 8 -178 12 l-106 6 -359 959 -359 959 -345 0 -345 0 -35 -96 -35 -97 -3
702 c-1 470 1 708 8 721 15 28 56 46 120 54 46 5 63 2 108 -19 93 -43 149 -30
224 54 64 71 91 144 92 246 1 63 -4 90 -22 126 -39 79 -64 95 -323 199 l-242
97 94 89 c137 131 148 142 158 179 13 47 3 82 -32 111 -27 23 -38 26 -84 22
-36 -3 -60 -12 -76 -26 -29 -27 -37 -28 -37 -3 0 31 -48 80 -85 87 -52 9 -112
-26 -197 -114 -402 -421 -568 -933 -568 -1751 0 -198 -5 -215 -64 -227 -19 -3
-101 1 -182 10 -242 25 -367 29 -594 17 -411 -22 -535 -43 -685 -115 -93 -46
-194 -127 -245 -198 l-28 -38 -188 -4 c-208 -4 -307 -19 -436 -66 -246 -90
-389 -283 -389 -525 0 -150 47 -263 152 -366 109 -107 285 -184 591 -260 252
-63 336 -100 379 -167 49 -77 37 -164 -32 -229 -47 -44 -101 -64 -190 -70
-193 -14 -332 90 -370 275 -11 52 -16 62 -34 61 -106 -3 -566 -37 -571 -42
-11 -11 24 -171 53 -243 35 -88 109 -199 171 -256 l51 -48 -292 0 c-161 0
-355 -3 -433 -7 l-141 -6 -43 99 c-129 293 -223 652 -261 994 -17 148 -17 552
0 700 36 323 132 699 243 955 35 79 39 144 14 192 -50 97 -213 112 -275 24
-24 -34 -98 -223 -149 -381 -292 -904 -225 -1891 188 -2746 489 -1016 1392
-1755 2477 -2028 310 -78 561 -109 893 -109 253 -1 380 9 616 48 745 124 1433
471 1984 1001 624 602 1008 1367 1127 2244 22 168 26 683 5 850 -58 464 -171
849 -367 1245 -250 504 -592 929 -1025 1276 -568 454 -1237 727 -1964 804
-179 19 -580 18 -754 -1z m1693 -1490 c154 -58 286 -111 294 -119 19 -19 16
-65 -8 -112 -33 -67 -42 -70 -121 -44 -91 30 -206 33 -272 8 -61 -24 -139
-108 -170 -185 l-23 -57 4 -1026 4 -1026 -223 -594 c-123 -327 -229 -599 -237
-605 -7 -6 -41 -14 -76 -18 -270 -29 -909 -150 -1272 -240 -529 -132 -1184
-346 -1550 -508 -128 -57 -134 -58 -173 -9 -17 22 -32 42 -32 44 0 3 23 14 50
26 56 24 64 45 23 55 -16 4 -70 24 -122 44 l-95 37 -62 85 c-35 46 -61 86 -59
88 5 5 332 -94 479 -145 l128 -46 94 38 c91 36 122 55 89 55 -8 0 -23 4 -33 9
-9 4 -46 16 -82 25 -165 43 -459 117 -600 151 -85 20 -160 42 -166 48 -6 7
-23 33 -38 58 l-26 45 213 -33 c116 -18 325 -56 462 -84 138 -29 270 -55 295
-59 25 -4 85 -19 134 -34 123 -37 168 -34 310 16 l120 42 -50 13 c-277 72
-863 162 -1359 208 -93 9 -170 17 -170 18 -1 1 -11 19 -23 40 -12 21 -22 41
-22 44 0 3 82 3 183 -1 568 -21 1049 -68 1598 -156 135 -22 263 -40 285 -40
22 0 74 9 115 20 41 12 136 35 212 53 75 17 137 34 137 38 0 8 -149 34 -345
59 -88 12 -176 23 -195 26 l-35 6 75 36 c106 52 242 187 293 292 106 219 87
468 -49 644 -107 136 -302 227 -679 316 -263 62 -312 78 -352 117 -27 28 -33
41 -33 77 0 88 70 145 190 154 132 9 236 -37 289 -129 16 -29 33 -70 36 -92
l7 -38 101 6 c56 4 190 12 297 18 l195 12 -3 30 c-24 224 -178 431 -372 501
-27 10 -50 21 -50 25 0 13 71 69 118 93 57 29 114 40 297 61 188 21 639 24
912 6 252 -17 274 -13 358 73 75 76 83 109 90 411 3 138 10 309 16 380 23 281
90 540 194 750 l54 111 73 -4 c63 -3 112 -18 353 -108z m464 -2651 l108 -353
-223 0 c-174 0 -222 3 -219 13 2 6 50 163 105 347 114 377 111 369 116 355 2
-5 53 -169 113 -362z m270 -899 c18 -58 31 -107 29 -109 -2 -1 -149 -8 -328
-14 -179 -7 -368 -16 -420 -20 -52 -4 -96 -7 -98 -5 -2 1 14 59 34 128 l37
126 357 0 357 0 32 -106z m1002 -226 l-20 -33 -178 -12 c-1394 -94 -2649 -383
-3788 -871 -200 -86 -592 -277 -759 -371 l-110 -61 -70 46 c-98 64 -236 167
-236 177 0 12 456 235 655 320 933 397 2022 666 3140 777 288 28 426 37 431
28 3 -4 152 -8 331 -8 320 0 325 0 320 20 -5 19 0 20 150 20 l155 0 -21 -32z
m-73 -138 c-26 -46 -20 -43 -158 -65 -58 -9 -118 -21 -135 -26 -16 -6 -48 -13
-70 -16 -51 -7 -593 -136 -705 -167 -47 -14 -119 -34 -160 -45 -41 -11 -95
-27 -120 -35 -25 -8 -115 -37 -200 -63 -154 -46 -483 -164 -675 -241 -560
-224 -1168 -548 -1609 -857 -59 -41 -114 -75 -121 -75 -19 0 -195 62 -298 106
l-88 36 109 73 c704 471 1656 878 2632 1126 25 6 101 27 170 45 69 19 152 38
185 43 33 5 161 29 285 54 124 25 304 57 400 72 347 51 506 73 543 74 l38 1
-23 -40z m-78 -126 c0 -3 -18 -31 -39 -63 l-39 -57 -209 -73 c-254 -89 -598
-223 -673 -261 -30 -15 -98 -46 -150 -68 -508 -216 -1182 -632 -1634 -1005
l-108 -90 -207 12 c-113 6 -221 15 -240 19 l-35 8 116 91 c786 623 1813 1115
2983 1432 236 64 235 64 235 55z m-187 -268 c-4 -8 -46 -60 -92 -115 -54 -66
-100 -111 -130 -128 -355 -200 -731 -459 -1037 -716 -161 -134 -169 -139 -374
-209 -109 -37 -390 -111 -397 -105 -4 5 238 215 352 305 266 209 644 458 940
617 50 27 101 56 115 65 14 10 36 21 50 25 14 4 43 19 65 33 22 14 83 44 135
68 52 23 158 72 235 108 77 36 141 66 143 66 2 0 -1 -6 -5 -14z"/>
<path d="M8738 9595 c-30 -17 -42 -44 -40 -95 2 -49 39 -80 96 -80 69 0 108
58 86 125 -19 58 -85 81 -142 50z"/>
<path d="M7410 6825 l0 -1015 315 0 315 0 0 1015 0 1015 -315 0 -315 0 0
-1015z"/>
<path d="M12885 10110 c-80 -12 -136 -30 -198 -62 -143 -76 -216 -243 -172
-393 44 -152 156 -229 444 -304 170 -45 211 -62 246 -103 50 -59 20 -143 -62
-180 -67 -29 -159 -21 -217 19 -46 33 -82 89 -92 146 l-6 39 -67 -6 c-36 -3
-121 -9 -188 -12 l-123 -7 7 -41 c17 -112 67 -209 142 -280 97 -90 204 -120
436 -120 177 -1 242 11 351 64 75 37 155 119 192 197 24 52 27 70 27 163 0 92
-3 112 -26 161 -64 135 -185 201 -517 280 -166 39 -192 55 -192 113 0 77 99
117 212 86 43 -12 91 -63 108 -115 l12 -37 82 6 c44 3 128 9 184 12 l104 7 -7
36 c-26 150 -113 255 -250 300 -115 39 -294 51 -430 31z"/>
<path d="M13810 9980 l0 -120 180 0 180 0 0 120 0 120 -180 0 -180 0 0 -120z"/>
<path d="M15738 10009 l-178 -89 0 -85 0 -85 -65 0 -65 0 0 -130 0 -130 65 0
65 0 0 -208 c0 -288 18 -369 95 -428 67 -51 220 -67 385 -41 l75 12 -1 60 c0
33 -4 86 -8 118 -6 46 -11 57 -23 53 -8 -3 -39 -9 -68 -12 -45 -6 -56 -3 -74
15 -20 20 -21 30 -21 226 l0 205 95 0 95 0 0 130 0 130 -95 0 -95 0 -2 174 -3
174 -177 -89z"/>
<path d="M21680 9880 l0 -221 -47 36 c-147 112 -379 93 -503 -41 -165 -179
-153 -574 23 -755 21 -23 64 -53 95 -67 49 -23 70 -27 152 -27 82 0 103 4 152
27 31 14 77 48 102 74 l46 48 0 -67 0 -67 165 0 165 0 0 640 0 640 -175 0
-175 0 0 -220z m-89 -403 c71 -47 98 -129 84 -245 -13 -103 -62 -162 -144
-170 -55 -5 -103 23 -135 77 -24 42 -34 176 -17 238 13 47 53 100 85 113 39
16 92 11 127 -13z"/>
<path d="M14658 9760 c-133 -23 -221 -78 -264 -166 -73 -149 5 -320 169 -369
29 -9 124 -30 211 -47 116 -23 165 -37 184 -53 27 -24 32 -65 11 -92 -36 -43
-147 -57 -209 -25 -30 15 -72 62 -82 93 -3 10 -336 -16 -347 -26 -8 -9 20 -77
51 -122 76 -111 239 -161 488 -150 220 10 345 68 407 190 82 162 3 329 -183
386 -35 12 -128 30 -205 41 -155 22 -195 37 -205 77 -6 22 -1 32 25 55 25 23
41 28 81 28 80 0 116 -20 156 -88 2 -3 327 28 331 32 2 1 -9 25 -23 52 -55
105 -144 165 -271 184 -79 11 -257 11 -325 0z"/>
<path d="M16612 9755 c-222 -48 -353 -196 -377 -425 -23 -226 107 -439 309
-502 60 -20 94 -23 221 -23 180 0 266 18 353 75 68 43 176 169 160 186 -3 2
-81 11 -173 19 l-167 15 -21 -26 c-26 -34 -91 -63 -140 -64 -81 0 -151 56
-172 137 l-12 48 360 3 360 2 -7 89 c-16 216 -92 348 -242 422 -110 54 -313
74 -452 44z m255 -221 c39 -30 61 -64 72 -111 l9 -43 -174 0 -174 0 0 23 c0
43 43 111 85 135 51 29 140 27 182 -4z"/>
<path d="M18027 9760 c-57 -15 -108 -44 -165 -95 l-52 -47 0 66 0 66 -165 0
-165 0 0 -465 0 -465 180 0 180 0 0 275 c0 296 3 318 53 363 34 31 94 39 136
17 57 -29 61 -52 61 -370 l0 -285 174 0 174 0 4 278 c4 308 9 335 72 373 50
30 100 25 144 -15 l37 -34 3 -301 3 -301 174 0 175 0 0 344 c0 309 -2 350 -19
405 -37 120 -124 187 -257 198 -126 10 -221 -22 -306 -105 l-48 -46 -50 56
c-30 34 -66 62 -92 73 -50 20 -195 29 -251 15z"/>
<path d="M19551 9755 c-40 -7 -87 -19 -105 -26 -54 -22 -116 -69 -142 -109
-26 -40 -58 -130 -46 -130 4 0 79 -9 167 -20 148 -18 161 -19 170 -4 46 75 97
99 198 92 71 -5 99 -29 101 -83 1 -37 0 -38 -54 -57 -30 -10 -127 -35 -215
-54 -202 -43 -271 -66 -317 -104 -112 -92 -110 -287 4 -384 54 -47 116 -67
223 -73 138 -8 253 25 347 99 l37 29 7 -28 c4 -15 13 -40 21 -55 l14 -28 164
0 c91 0 165 2 165 5 0 4 -8 20 -17 38 -16 28 -19 72 -23 337 -6 289 -7 308
-29 365 -30 76 -99 146 -167 169 -109 36 -361 47 -503 21z m349 -549 c0 -66
-12 -101 -48 -140 -93 -100 -272 -82 -272 28 0 44 43 81 122 106 40 12 98 30
128 40 30 10 58 19 63 19 4 1 7 -23 7 -53z"/>
<path d="M22592 9755 c-222 -48 -353 -196 -377 -425 -23 -226 107 -439 309
-502 60 -20 94 -23 221 -23 180 0 266 18 353 75 68 43 176 169 160 186 -3 2
-81 11 -173 19 l-167 15 -21 -26 c-26 -34 -91 -63 -140 -64 -81 0 -151 56
-172 137 l-12 48 360 3 360 2 -7 89 c-16 216 -92 348 -242 422 -110 54 -313
74 -452 44z m255 -221 c39 -30 61 -64 72 -111 l9 -43 -174 0 -174 0 0 23 c0
43 43 111 85 135 51 29 140 27 182 -4z"/>
<path d="M13810 9285 l0 -465 180 0 180 0 0 465 0 465 -180 0 -180 0 0 -465z"/>
<path d="M14623 8266 c-125 -31 -182 -110 -191 -266 l-5 -90 -68 0 -69 0 0
-130 0 -130 70 0 70 0 0 -335 0 -335 175 0 175 0 0 335 0 335 85 0 85 0 0 130
0 130 -86 0 -87 0 7 48 c4 34 13 54 33 71 24 21 34 23 100 19 l73 -5 6 36 c4
20 12 67 20 106 7 38 12 71 11 72 -2 1 -49 7 -106 12 -132 14 -232 13 -298 -3z"/>
<path d="M22321 8155 c-39 -69 -71 -127 -71 -130 0 -3 37 -5 83 -5 l82 0 105
96 c58 53 121 111 140 130 l35 34 -151 0 -152 0 -71 -125z"/>
<path d="M12540 7620 l0 -640 195 0 195 0 0 640 0 640 -195 0 -195 0 0 -640z"/>
<path d="M21330 8140 l0 -120 180 0 180 0 0 120 0 120 -180 0 -180 0 0 -120z"/>
<path d="M13750 7916 c-67 -19 -108 -43 -167 -99 l-53 -50 0 72 0 71 -165 0
-165 0 0 -465 0 -465 174 0 174 0 4 273 c4 294 7 316 61 366 34 31 103 39 146
16 57 -29 61 -52 61 -370 l0 -285 181 0 180 0 -3 353 c-5 414 -7 428 -91 512
-42 41 -64 55 -113 68 -70 20 -159 21 -224 3z"/>
<path d="M15401 7915 c-35 -8 -92 -28 -126 -44 -346 -162 -347 -690 -2 -852
200 -93 462 -74 624 45 216 159 245 508 59 713 -112 124 -348 182 -555 138z
m242 -258 c50 -38 71 -88 75 -185 5 -97 -10 -164 -45 -211 -62 -81 -185 -80
-254 2 -46 54 -63 198 -34 293 14 47 53 96 100 123 34 20 119 8 158 -22z"/>
<path d="M16745 7918 c-50 -18 -81 -45 -116 -100 l-34 -53 -3 73 -3 72 -164 0
-165 0 0 -465 0 -465 180 0 180 0 0 218 c0 234 12 326 51 388 38 61 84 73 189
49 23 -6 27 0 64 87 21 51 45 108 53 126 l14 33 -48 21 c-55 24 -155 33 -198
16z"/>
<path d="M17687 7920 c-57 -15 -108 -44 -165 -95 l-52 -47 0 66 0 66 -165 0
-165 0 0 -465 0 -465 180 0 180 0 0 275 c0 296 3 318 53 363 34 31 94 39 136
17 57 -29 61 -52 61 -370 l0 -285 174 0 174 0 4 278 c4 308 9 335 72 373 50
30 100 25 144 -15 l37 -34 3 -301 3 -301 174 0 175 0 0 344 c0 309 -2 350 -19
405 -37 120 -124 187 -257 198 -126 10 -221 -22 -306 -105 l-48 -46 -50 56
c-30 34 -66 62 -92 73 -50 20 -195 29 -251 15z"/>
<path d="M19211 7915 c-40 -7 -87 -19 -105 -26 -54 -22 -116 -69 -142 -109
-26 -40 -58 -130 -46 -130 4 0 79 -9 167 -20 148 -18 161 -19 170 -4 46 75 97
99 198 92 71 -5 99 -29 101 -83 1 -37 0 -38 -54 -57 -30 -10 -127 -35 -215
-54 -202 -43 -271 -66 -317 -104 -112 -92 -110 -287 4 -384 54 -47 116 -67
223 -73 138 -8 253 25 347 99 l37 29 7 -28 c4 -15 13 -40 21 -55 l14 -28 164
0 c91 0 165 2 165 5 0 4 -8 20 -17 38 -16 28 -19 72 -23 337 -6 289 -7 308
-29 365 -30 76 -99 146 -167 169 -109 36 -361 47 -503 21z m349 -549 c0 -66
-12 -101 -48 -140 -93 -100 -272 -82 -272 28 0 44 43 81 122 106 40 12 98 30
128 40 30 10 58 19 63 19 4 1 7 -23 7 -53z"/>
<path d="M20460 7916 c-85 -18 -131 -38 -192 -83 -137 -100 -200 -266 -178
-466 13 -108 43 -178 107 -248 102 -109 198 -146 403 -155 140 -7 233 8 325
50 63 29 147 103 181 161 27 48 56 125 46 125 -4 0 -79 9 -166 20 -158 19
-176 19 -176 -2 0 -24 -55 -81 -94 -99 -49 -22 -114 -24 -159 -5 -43 17 -93
76 -106 123 -14 48 -14 157 -1 204 32 116 156 180 263 135 36 -14 87 -69 87
-92 0 -8 1 -14 3 -14 1 0 76 9 167 20 91 11 166 20 167 20 5 0 -31 85 -46 110
-86 141 -210 199 -436 206 -85 2 -152 -1 -195 -10z"/>
<path d="M22261 7915 c-239 -52 -382 -228 -382 -470 0 -306 226 -499 566 -482
180 9 315 73 401 189 60 82 85 155 91 263 15 258 -130 447 -382 500 -86 18
-209 18 -294 0z m212 -239 c42 -17 83 -66 97 -114 5 -20 10 -73 10 -117 0 -97
-12 -144 -47 -186 -47 -56 -132 -75 -192 -45 -79 42 -119 139 -108 268 13 157
121 244 240 194z"/>
<path d="M23660 7916 c-67 -19 -108 -43 -167 -99 l-53 -50 0 72 0 71 -165 0
-165 0 0 -465 0 -465 174 0 174 0 4 273 c4 294 7 316 61 366 34 31 103 39 146
16 57 -29 61 -52 61 -370 l0 -285 181 0 180 0 -3 353 c-5 414 -7 428 -91 512
-42 41 -64 55 -113 68 -70 20 -159 21 -224 3z"/>
<path d="M21330 7445 l0 -465 180 0 180 0 0 465 0 465 -180 0 -180 0 0 -465z"/>
<path d="M26331 6325 c-39 -69 -71 -127 -71 -130 0 -3 37 -5 83 -5 l82 0 105
96 c58 53 121 111 140 130 l35 34 -151 0 -152 0 -71 -125z"/>
<path d="M12633 5790 l-241 -640 202 0 202 0 30 103 30 102 226 3 227 2 32
-105 32 -105 204 0 c111 0 203 3 203 8 0 4 -106 292 -237 640 l-237 632 -216
0 -217 0 -240 -640z m522 82 c36 -117 65 -216 65 -222 0 -6 -51 -10 -135 -10
-89 0 -135 4 -135 11 0 6 25 92 56 192 76 249 75 249 80 244 3 -2 34 -99 69
-215z"/>
<path d="M20378 6339 l-178 -89 0 -85 0 -85 -65 0 -65 0 0 -130 0 -130 65 0
65 0 0 -208 c0 -288 18 -369 95 -428 67 -51 220 -67 385 -41 l75 12 -1 60 c0
33 -4 86 -8 118 -6 46 -11 57 -23 53 -8 -3 -39 -9 -68 -12 -45 -6 -56 -3 -74
15 -20 20 -21 30 -21 226 l0 205 95 0 95 0 0 130 0 130 -95 0 -95 0 -2 174 -3
174 -177 -89z"/>
<path d="M25340 5790 l0 -640 180 0 180 0 0 640 0 640 -180 0 -180 0 0 -640z"/>
<path d="M28330 6310 l0 -120 180 0 180 0 0 120 0 120 -180 0 -180 0 0 -120z"/>
<path d="M14123 6085 c-192 -52 -297 -257 -263 -513 13 -102 39 -171 90 -238
125 -166 370 -192 520 -57 l53 47 -5 -116 c-5 -128 -15 -154 -71 -188 -67 -41
-181 -16 -209 45 -6 14 -14 25 -17 25 -3 0 -80 9 -171 20 -91 11 -166 20 -167
20 -12 0 1 -110 17 -153 48 -129 163 -183 410 -194 224 -9 371 28 460 117 48
48 85 122 100 200 6 30 10 247 10 516 l0 464 -170 0 -170 0 0 -63 0 -63 -54
52 c-43 42 -68 57 -121 73 -77 24 -166 26 -242 6z m308 -267 c115 -64 121
-292 10 -365 -70 -47 -167 -20 -209 58 -21 39 -23 54 -20 134 3 60 10 101 22
123 36 69 124 92 197 50z"/>
<path d="M15605 6088 c-50 -18 -81 -45 -116 -100 l-34 -53 -3 73 -3 72 -164 0
-165 0 0 -465 0 -465 180 0 180 0 0 218 c0 234 12 326 51 388 38 61 84 73 189
49 23 -6 27 0 64 87 21 51 45 108 53 126 l14 33 -48 21 c-55 24 -155 33 -198
16z"/>
<path d="M16291 6085 c-35 -8 -92 -28 -126 -44 -346 -162 -347 -690 -2 -852
200 -93 462 -74 624 45 216 159 245 508 59 713 -112 124 -348 182 -555 138z
m242 -258 c50 -38 71 -88 75 -185 5 -97 -10 -164 -45 -211 -62 -81 -185 -80
-254 2 -46 54 -63 198 -34 293 14 47 53 96 100 123 34 20 119 8 158 -22z"/>
<path d="M17687 6090 c-57 -15 -108 -44 -165 -95 l-52 -47 0 66 0 66 -165 0
-165 0 0 -465 0 -465 180 0 180 0 0 275 c0 296 3 318 53 363 34 31 94 39 136
17 57 -29 61 -52 61 -370 l0 -285 174 0 174 0 4 278 c4 308 9 335 72 373 50
30 100 25 144 -15 l37 -34 3 -301 3 -301 174 0 175 0 0 344 c0 309 -2 350 -19
405 -37 120 -124 187 -257 198 -126 10 -221 -22 -306 -105 l-48 -46 -50 56
c-30 34 -66 62 -92 73 -50 20 -195 29 -251 15z"/>
<path d="M19262 6085 c-222 -48 -353 -196 -377 -425 -23 -226 107 -439 309
-502 60 -20 94 -23 221 -23 180 0 266 18 353 75 68 43 176 169 160 186 -3 2
-81 11 -173 19 l-167 15 -21 -26 c-26 -34 -91 -63 -140 -64 -81 0 -151 56
-172 137 l-12 48 360 3 360 2 -7 89 c-16 216 -92 348 -242 422 -110 54 -313
74 -452 44z m255 -221 c39 -30 61 -64 72 -111 l9 -43 -174 0 -174 0 0 23 c0
43 43 111 85 135 51 29 140 27 182 -4z"/>
<path d="M21252 6085 c-222 -48 -353 -196 -377 -425 -23 -226 107 -439 309
-502 60 -20 94 -23 221 -23 180 0 266 18 353 75 68 43 176 169 160 186 -3 2
-81 11 -173 19 l-167 15 -21 -26 c-26 -34 -91 -63 -140 -64 -81 0 -151 56
-172 137 l-12 48 360 3 360 2 -7 89 c-16 216 -92 348 -242 422 -110 54 -313
74 -452 44z m255 -221 c39 -30 61 -64 72 -111 l9 -43 -174 0 -174 0 0 23 c0
43 43 111 85 135 51 29 140 27 182 -4z"/>
<path d="M22461 6085 c-35 -8 -92 -28 -126 -44 -346 -162 -347 -690 -2 -852
200 -93 462 -74 624 45 216 159 245 508 59 713 -112 124 -348 182 -555 138z
m242 -258 c50 -38 71 -88 75 -185 5 -97 -10 -164 -45 -211 -62 -81 -185 -80
-254 2 -46 54 -63 198 -34 293 14 47 53 96 100 123 34 20 119 8 158 -22z"/>
<path d="M23795 6088 c-50 -18 -81 -45 -116 -100 l-34 -53 -3 73 -3 72 -164 0
-165 0 0 -465 0 -465 180 0 180 0 0 218 c0 234 12 326 51 388 38 61 84 73 189
49 23 -6 27 0 64 87 21 51 45 108 53 126 l14 33 -48 21 c-55 24 -155 33 -198
16z"/>
<path d="M24481 6085 c-35 -8 -92 -28 -126 -44 -346 -162 -347 -690 -2 -852
200 -93 462 -74 624 45 216 159 245 508 59 713 -112 124 -348 182 -555 138z
m242 -258 c50 -38 71 -88 75 -185 5 -97 -10 -164 -45 -211 -62 -81 -185 -80
-254 2 -46 54 -63 198 -34 293 14 47 53 96 100 123 34 20 119 8 158 -22z"/>
<path d="M26271 6085 c-239 -52 -382 -228 -382 -470 0 -306 226 -499 566 -482
180 9 315 73 401 189 60 82 85 155 91 263 15 258 -130 447 -382 500 -86 18
-209 18 -294 0z m212 -239 c42 -17 83 -66 97 -114 5 -20 10 -73 10 -117 0 -97
-12 -144 -47 -186 -47 -56 -132 -75 -192 -45 -79 42 -119 139 -108 268 13 157
121 244 240 194z"/>
<path d="M27353 6085 c-192 -52 -297 -257 -263 -513 13 -102 39 -171 90 -238
125 -166 370 -192 520 -57 l53 47 -5 -116 c-5 -128 -15 -154 -71 -188 -67 -41
-181 -16 -209 45 -6 14 -14 25 -17 25 -3 0 -80 9 -171 20 -91 11 -166 20 -167
20 -12 0 1 -110 17 -153 48 -129 163 -183 410 -194 224 -9 371 28 460 117 48
48 85 122 100 200 6 30 10 247 10 516 l0 464 -170 0 -170 0 0 -63 0 -63 -54
52 c-43 42 -68 57 -121 73 -77 24 -166 26 -242 6z m308 -267 c115 -64 121
-292 10 -365 -70 -47 -167 -20 -209 58 -21 39 -23 54 -20 134 3 60 10 101 22
123 36 69 124 92 197 50z"/>
<path d="M29250 6086 c-85 -18 -131 -38 -192 -83 -137 -100 -200 -266 -178
-466 13 -108 43 -178 107 -248 102 -109 198 -146 403 -155 140 -7 233 8 325
50 63 29 147 103 181 161 27 48 56 125 46 125 -4 0 -79 9 -166 20 -158 19
-176 19 -176 -2 0 -24 -55 -81 -94 -99 -49 -22 -114 -24 -159 -5 -43 17 -93
76 -106 123 -14 48 -14 157 -1 204 32 116 156 180 263 135 36 -14 87 -69 87
-92 0 -8 1 -14 3 -14 1 0 76 9 167 20 91 11 166 20 167 20 5 0 -31 85 -46 110
-86 141 -210 199 -436 206 -85 2 -152 -1 -195 -10z"/>
<path d="M30391 6085 c-40 -7 -87 -19 -105 -26 -54 -22 -116 -69 -142 -109
-26 -40 -58 -130 -46 -130 4 0 79 -9 167 -20 148 -18 161 -19 170 -4 46 75 97
99 198 92 71 -5 99 -29 101 -83 1 -37 0 -38 -54 -57 -30 -10 -127 -35 -215
-54 -202 -43 -271 -66 -317 -104 -112 -92 -110 -287 4 -384 54 -47 116 -67
223 -73 138 -8 253 25 347 99 l37 29 7 -28 c4 -15 13 -40 21 -55 l14 -28 164
0 c91 0 165 2 165 5 0 4 -8 20 -17 38 -16 28 -19 72 -23 337 -6 289 -7 308
-29 365 -30 76 -99 146 -167 169 -109 36 -361 47 -503 21z m349 -549 c0 -66
-12 -101 -48 -140 -93 -100 -272 -82 -272 28 0 44 43 81 122 106 40 12 98 30
128 40 30 10 58 19 63 19 4 1 7 -23 7 -53z"/>
<path d="M28330 5615 l0 -465 180 0 180 0 0 465 0 465 -180 0 -180 0 0 -465z"/>
</g>
</svg>
